Coordinates
version=1
nRows=49
nColumns=12
inDegrees=yes

Units are S.I. units (second, meters, Newtons, ...)
Angles are in degrees

endheader
time	SC_y	SC_z	SC_x	AC_y	AC_z	AC_x	GH_y	GH_z	GH_yy	EL_x	PS_y
       0.0              -41.46          24.22           48.7          46.04         -11.28         -8.576         -144.1         0.5828          5.331          114.2          120.1
   0.03361              -41.46          24.22           48.7          46.04         -11.28         -8.578         -144.1         0.5937          5.346          114.2          120.1
   0.06722              -41.45          24.22          48.71          46.04         -11.28         -8.579         -144.1         0.6053          5.363          114.2          120.1
    0.1008              -41.45          24.22          48.71          46.04         -11.28         -8.581         -144.1         0.6176           5.38          114.2          120.1
    0.1344              -41.45          24.21          48.72          46.04         -11.28         -8.582         -144.1         0.6307          5.399          114.2          120.1
    0.1681              -41.45          24.21          48.73          46.04         -11.28         -8.584         -144.1         0.6447          5.419          114.1          120.1
    0.2017              -41.45          24.21          48.73          46.04         -11.28         -8.586         -144.1         0.6596           5.44          114.1          120.1
    0.2353              -41.44          24.21          48.74          46.04         -11.28         -8.588         -144.1         0.6756          5.462          114.1          120.1
    0.2689              -41.44          24.21          48.75          46.04         -11.28          -8.59         -144.1         0.6926          5.487          114.1          120.1
    0.3025              -41.44          24.21          48.76          46.04         -11.28         -8.592         -144.1          0.711          5.513          114.1          120.1
    0.3361              -41.43          24.21          48.77          46.04         -11.28         -8.595         -144.1         0.7307          5.541          114.1          120.1
    0.3697              -41.43           24.2          48.78          46.04         -11.29         -8.597         -144.1         0.7519          5.571          114.1          120.1
    0.4033              -41.43           24.2          48.79          46.04         -11.29           -8.6         -144.1         0.7747          5.603          114.1          120.1
    0.4369              -41.42           24.2           48.8          46.04         -11.29         -8.603         -144.1         0.7994          5.638          114.1          120.1
    0.4706              -41.42           24.2          48.81          46.04         -11.29         -8.606         -144.1         0.8261          5.676          114.1          120.2
    0.5042              -41.41           24.2          48.82          46.04         -11.29          -8.61         -144.1         0.8551          5.717          114.0          120.2
    0.5378              -41.41          24.19          48.84          46.04         -11.29         -8.614         -144.0         0.8865          5.762          114.0          120.2
    0.5714               -41.4          24.19          48.86          46.04          -11.3         -8.618         -144.0         0.9208          5.811          114.0          120.2
     0.605              -41.39          24.19          48.87          46.04          -11.3         -8.623         -144.0         0.9583          5.864          114.0          120.2
    0.6386              -41.39          24.18          48.89          46.05          -11.3         -8.628         -144.0         0.9993          5.922          114.0          120.2
    0.6722              -41.38          24.18          48.91          46.05          -11.3         -8.634         -144.0          1.044          5.986          113.9          120.2
    0.7058              -41.37          24.17          48.94          46.05         -11.31          -8.64         -144.0          1.094          6.057          113.9          120.2
    0.7395              -41.36          24.17          48.96          46.05         -11.31         -8.646         -143.9          1.149          6.134          113.9          120.2
    0.7731              -41.35          24.17          48.99          46.05         -11.32         -8.654         -143.9          1.209           6.22          113.9          120.2
    0.8067              -41.34          24.16          49.02          46.05         -11.32         -8.662         -143.9          1.277          6.316          113.8          120.2
    0.8403              -41.33          24.15          49.06          46.05         -11.32         -8.672         -143.9          1.352          6.423          113.8          120.2
    0.8739              -41.31          24.15           49.1          46.05         -11.33         -8.682         -143.8          1.436          6.543          113.8          120.3
    0.9075               -41.3          24.14          49.14          46.05         -11.34         -8.694         -143.8          1.531          6.677          113.7          120.3
    0.9411              -41.28          24.13          49.19          46.05         -11.34         -8.707         -143.8          1.638          6.829          113.6          120.3
    0.9747              -41.26          24.12          49.25          46.06         -11.35         -8.722         -143.7           1.76          7.002          113.6          120.3
     1.008              -41.23          24.11          49.31          46.06         -11.36         -8.739         -143.7          1.898          7.199          113.5          120.3
     1.042              -41.21          24.09          49.39          46.06         -11.37         -8.759         -143.6          2.058          7.425          113.4          120.4
     1.076              -41.18          24.08          49.47          46.06         -11.38         -8.782         -143.6          2.241          7.687          113.3          120.4
     1.109              -41.14          24.06          49.57          46.07         -11.39         -8.809         -143.5          2.455           7.99          113.2          120.4
     1.143               -41.1          24.04          49.69          46.07         -11.41          -8.84         -143.4          2.705          8.345          113.1          120.5
     1.176              -41.05          24.01          49.83          46.08         -11.43         -8.876         -143.3            3.0          8.764          113.0          120.5
      1.21              -40.99          23.98          49.99          46.08         -11.45          -8.92         -143.2           3.35          9.261          112.8          120.6
     1.244              -40.92          23.95          50.18          46.09         -11.48         -8.972         -143.0           3.77          9.858          112.6          120.7
     1.277              -40.83          23.91          50.42          46.09         -11.51         -9.035         -142.8          4.278          10.58          112.3          120.7
     1.311              -40.72          23.85          50.71           46.1         -11.55         -9.112         -142.6          4.898          11.46          112.0          120.9
     1.344              -40.59          23.79          51.07          46.12          -11.6         -9.207         -142.4          5.664          12.55          111.6          121.0
     1.378              -40.43          23.71          51.51          46.13         -11.66         -9.325         -142.0          6.619           13.9          111.1          121.1
     1.412              -40.23          23.61          52.08          46.15         -11.73         -9.474         -141.6          7.822          15.61          110.5          121.4
     1.445              -39.97          23.48          52.79          46.17         -11.83         -9.664         -141.1          9.351          17.78          109.8          121.6
     1.479              -39.63          23.31           53.7           46.2         -11.95         -9.907         -140.4          11.31          20.56          108.8          122.0
     1.513              -39.21           23.1          54.88          46.24         -12.11         -10.22         -139.5          13.82          24.13          107.5          122.4
     1.546              -38.66          22.83          56.37          46.28         -12.32         -10.62         -138.4          17.03          28.69          105.9          122.9
      1.58              -37.97          22.49          58.26          46.34         -12.57         -11.12         -136.9          21.06          34.42          103.9          123.6
     1.613              -37.14          22.08          60.55          46.42         -12.88         -11.73         -135.2          25.98           41.4          101.4          124.5
